<svg width="13" height="13" viewBox="0 0 13 13" fill="none" xmlns="http://www.w3.org/2000/svg">
<path fill-rule="evenodd" clip-rule="evenodd" d="M5.11125 12.125H7.88875C9.83938 12.125 10.815 12.125 11.5156 11.6656C11.818 11.4676 12.0784 11.2119 12.2819 10.9131C12.75 10.2256 12.75 9.2675 12.75 7.3525C12.75 5.4375 12.75 4.47937 12.2819 3.79187C12.0784 3.49312 11.818 3.23741 11.5156 3.03937C11.0656 2.74375 10.5019 2.63812 9.63875 2.60062C9.22688 2.60062 8.8725 2.29437 8.79188 1.8975C8.73026 1.60679 8.57017 1.34627 8.33866 1.15997C8.10714 0.973665 7.81841 0.873004 7.52125 0.874999H5.47875C4.86125 0.874999 4.32938 1.30312 4.20813 1.8975C4.1275 2.29437 3.77313 2.60062 3.36125 2.60062C2.49875 2.63812 1.935 2.74437 1.48438 3.03937C1.18221 3.23747 0.922046 3.49318 0.71875 3.79187C0.25 4.47937 0.25 5.43687 0.25 7.3525C0.25 9.26812 0.25 10.225 0.718125 10.9131C0.920625 11.2106 1.18063 11.4662 1.48438 11.6656C2.185 12.125 3.16063 12.125 5.11125 12.125ZM6.5 4.79562C5.06188 4.79562 3.89563 5.94 3.89563 7.35187C3.89563 8.76375 5.0625 9.91 6.5 9.91C7.9375 9.91 9.10438 8.765 9.10438 7.35312C9.10438 5.94125 7.9375 4.79562 6.5 4.79562ZM6.5 5.81812C5.6375 5.81812 4.9375 6.505 4.9375 7.3525C4.9375 8.19937 5.6375 8.88625 6.5 8.88625C7.3625 8.88625 8.0625 8.19937 8.0625 7.3525C8.0625 6.50562 7.3625 5.81812 6.5 5.81812ZM9.45125 5.30687C9.45125 5.02437 9.68438 4.79562 9.9725 4.79562H10.6663C10.9538 4.79562 11.1875 5.02437 11.1875 5.30687C11.1862 5.44368 11.1306 5.57438 11.033 5.67024C10.9354 5.7661 10.8037 5.81929 10.6669 5.81812H9.9725C9.9047 5.81878 9.83744 5.80608 9.77456 5.78075C9.71167 5.75541 9.65439 5.71793 9.60599 5.67046C9.55758 5.62299 9.519 5.56644 9.49245 5.50406C9.4659 5.44167 9.4519 5.37467 9.45125 5.30687Z" fill="#5F5F5F"/>
</svg>
