<svg width="19" height="18" viewBox="0 0 19 18" fill="none" xmlns="http://www.w3.org/2000/svg">
<path d="M1.64588 11.8578C2.09467 12.2167 2.66764 12.3825 3.23873 12.3189C3.80982 12.2554 4.33226 11.9675 4.69113 11.5187L7.71255 7.74222L10.3667 9.73339C10.8172 10.0711 11.3815 10.2201 11.94 10.1489C12.4986 10.0777 13.0074 9.79193 13.3589 9.35206L17.6922 3.93539C18.0512 3.4866 18.2172 2.91358 18.1537 2.34238C18.0903 1.77118 17.8025 1.2486 17.3537 0.889599C16.9049 0.530595 16.3319 0.364577 15.7607 0.428065C15.1895 0.491554 14.6669 0.77935 14.3079 1.22814L11.2865 5.00464L8.63338 3.01672C8.1831 2.67881 7.61899 2.52943 7.06049 2.6002C6.50199 2.67097 5.99297 2.95635 5.64121 3.39589L1.30788 8.81256C0.948908 9.26122 0.782853 9.83409 0.846239 10.4052C0.909625 10.9763 1.19726 11.4988 1.64588 11.8578ZM1.91671 17.7501H17.0834C17.3707 17.7501 17.6462 17.6359 17.8494 17.4328C18.0526 17.2296 18.1667 16.954 18.1667 16.6667C18.1667 16.3794 18.0526 16.1039 17.8494 15.9007C17.6462 15.6975 17.3707 15.5834 17.0834 15.5834H1.91671C1.62939 15.5834 1.35384 15.6975 1.15068 15.9007C0.947516 16.1039 0.833379 16.3794 0.833379 16.6667C0.833379 16.954 0.947516 17.2296 1.15068 17.4328C1.35384 17.6359 1.62939 17.7501 1.91671 17.7501Z" fill="#A6A6A6"/>
</svg>
