<svg width="27" height="25" viewBox="0 0 27 25" fill="none" xmlns="http://www.w3.org/2000/svg">
<path d="M8.0741 20.396C8.58799 20.396 9.08084 20.5913 9.44421 20.939C9.80759 21.2866 10.0117 21.7581 10.0117 22.2498C10.0117 22.7414 9.80759 23.2129 9.44421 23.5606C9.08084 23.9082 8.58799 24.1035 8.0741 24.1035C7.56021 24.1035 7.06737 23.9082 6.70399 23.5606C6.34062 23.2129 6.13647 22.7414 6.13647 22.2498C6.13647 21.7581 6.34062 21.2866 6.70399 20.939C7.06737 20.5913 7.56021 20.396 8.0741 20.396ZM19.6999 20.396C20.2138 20.396 20.7066 20.5913 21.07 20.939C21.4334 21.2866 21.6375 21.7581 21.6375 22.2498C21.6375 22.7414 21.4334 23.2129 21.07 23.5606C20.7066 23.9082 20.2138 24.1035 19.6999 24.1035C19.186 24.1035 18.6931 23.9082 18.3298 23.5606C17.9664 23.2129 17.7622 22.7414 17.7622 22.2498C17.7622 21.7581 17.9664 21.2866 18.3298 20.939C18.6931 20.5913 19.186 20.396 19.6999 20.396Z" stroke="white" stroke-width="1.5"/>
<path d="M1.29112 0.983689C1.04856 0.902075 0.782053 0.915988 0.550219 1.02237C0.318386 1.12875 0.140219 1.31888 0.0549127 1.55094C-0.0303932 1.783 -0.01585 2.03798 0.0953429 2.25978C0.206536 2.48158 0.40527 2.65203 0.647827 2.73365L1.29112 0.983689ZM25.071 10.365L26.0191 10.5516L26.0204 10.5467L25.071 10.365ZM5.75929 10.213V6.84901H3.82166V10.213H5.75929ZM1.62827 1.09739L1.29112 0.983689L0.647827 2.73365L0.984974 2.84611L1.62827 1.09739ZM12.5151 18.2336H19.364V16.3799H12.5151V18.2336ZM5.75929 6.84901C5.75929 5.97527 5.76058 5.24612 5.6947 4.65415C5.62365 4.03994 5.4751 3.4801 5.11083 2.97093L3.51035 4.01645C3.62661 4.17959 3.71703 4.40451 3.76741 4.85312C3.82037 5.32274 3.82166 5.93449 3.82166 6.84901H5.75929ZM0.984974 2.84611C1.84786 3.13653 2.41494 3.32932 2.83218 3.52706C3.22358 3.70996 3.39667 3.85827 3.51035 4.01769L5.11083 2.97093C4.74397 2.45682 4.2544 2.12808 3.68473 1.8599C3.1422 1.60532 2.44724 1.37298 1.62827 1.09739L0.984974 2.84611ZM3.82166 10.213C3.82166 12.0087 3.83974 13.3026 4.01542 14.2913C4.20531 15.3467 4.58379 16.103 5.2878 16.8149L6.69452 15.5395C6.28116 15.1218 6.05768 14.7139 5.92592 13.9786C5.78383 13.1753 5.75929 12.0532 5.75929 10.213H3.82166ZM12.5151 16.3799C10.6847 16.3799 9.41494 16.3774 8.45776 16.2476C7.53415 16.1228 7.04716 15.8954 6.69452 15.5395L5.2878 16.8149C6.0551 17.5898 7.02779 17.9271 8.1852 18.0829C9.30902 18.2361 10.7442 18.2336 12.5151 18.2336V16.3799ZM4.79047 6.64139H20.4594V4.78762H4.79177L4.79047 6.64139ZM24.1215 10.1771L23.4757 13.1741L25.3745 13.5473L26.0191 10.5516L24.1215 10.1771ZM20.462 6.64139C21.5677 6.64139 22.5417 6.64263 23.3103 6.72419C23.6901 6.76704 23.9794 6.82224 24.1784 6.8898C24.3863 6.96024 24.4199 7.01338 24.4031 6.99237L25.939 5.86281C25.6355 5.48464 25.2092 5.27084 24.8204 5.14107C24.3999 5.00867 23.9654 4.92162 23.5247 4.88155C22.627 4.78639 21.5316 4.78762 20.462 4.78762V6.64139ZM26.0204 10.5467C26.24 9.49867 26.426 8.61875 26.4712 7.91431C26.519 7.19011 26.4325 6.47579 25.939 5.86281L24.4031 6.99237C24.4832 7.09247 24.5711 7.27167 24.5375 7.80062C24.5026 8.34933 24.3515 9.08219 24.1215 10.1833L26.0204 10.5467ZM19.364 18.2336C20.3483 18.2336 21.175 18.2349 21.8416 18.157C22.5327 18.0767 23.1643 17.8987 23.7146 17.4699L22.4901 16.0326C22.3286 16.1586 22.0999 16.26 21.6052 16.3168C21.0846 16.3786 20.3974 16.3799 19.364 16.3799V18.2336ZM23.4782 13.1741C23.269 14.1417 23.1295 14.7844 22.9615 15.2602C22.8027 15.7125 22.6515 15.9065 22.4901 16.0326L23.7146 17.4699C24.2662 17.0398 24.5749 16.4849 24.7971 15.8522C25.0115 15.2441 25.1769 14.4705 25.3758 13.5485L23.4782 13.1741Z" fill="white"/>
</svg>
