<svg width="21" height="20" viewBox="0 0 21 20" fill="none" xmlns="http://www.w3.org/2000/svg">
<path d="M11.207 0.293031L20.207 9.29303C20.837 9.92303 20.391 11 19.5 11H18.5V17C18.5 17.7957 18.184 18.5587 17.6214 19.1214C17.0588 19.684 16.2957 20 15.5 20H14.5V13C14.5001 12.2348 14.2077 11.4985 13.6828 10.9418C13.1578 10.385 12.4399 10.0499 11.676 10.005L11.5 10H9.50004C8.70439 10 7.94133 10.3161 7.37872 10.8787C6.81611 11.4413 6.50004 12.2044 6.50004 13V20H5.50004C4.70439 20 3.94133 19.684 3.37872 19.1214C2.81611 18.5587 2.50004 17.7957 2.50004 17V11H1.50004C0.610039 11 0.163039 9.92303 0.793039 9.29303L9.79304 0.293031C9.98057 0.105559 10.2349 0.000244141 10.5 0.000244141C10.7652 0.000244141 11.0195 0.105559 11.207 0.293031ZM11.5 12C11.7653 12 12.0196 12.1054 12.2071 12.2929C12.3947 12.4805 12.5 12.7348 12.5 13V20H8.50004V13C8.50007 12.7551 8.59 12.5187 8.75275 12.3357C8.91551 12.1526 9.13979 12.0357 9.38304 12.007L9.50004 12H11.5Z" fill="white"/>
</svg>
