<svg width="17" height="20" viewBox="0 0 17 20" fill="none" xmlns="http://www.w3.org/2000/svg">
<path fill-rule="evenodd" clip-rule="evenodd" d="M0.595786 1.34714C0.97719 0.965263 1.49463 0.750475 2.03436 0.75L9.61671 0.75C10.1564 0.750475 10.6739 0.965263 11.0553 1.34714L15.6886 5.98043C16.0705 6.36183 16.2852 6.87928 16.2857 7.419V17.7143C16.2857 18.2542 16.0712 18.772 15.6895 19.1538C15.3077 19.5355 14.7899 19.75 14.25 19.75H2.03571C1.49581 19.75 0.978017 19.5355 0.596247 19.1538C0.214476 18.772 0 18.2542 0 17.7143V2.78571C0 2.24557 0.213071 1.72714 0.595786 1.34714ZM6.93636 6.89379C7.04534 6.97142 7.13795 7.06978 7.20888 7.18324C7.27981 7.2967 7.32767 7.42303 7.34973 7.55501C7.37179 7.68698 7.36761 7.82201 7.33743 7.95237C7.30725 8.08273 7.25167 8.20586 7.17386 8.31471L5.27793 10.9693C5.19196 11.0894 5.08087 11.1894 4.95239 11.2622C4.8239 11.3351 4.6811 11.3791 4.53389 11.3913C4.38668 11.4034 4.2386 11.3834 4.09991 11.3325C3.96123 11.2817 3.83527 11.2013 3.73079 11.0969L2.5935 9.95957C2.41371 9.76662 2.31582 9.51141 2.32048 9.24772C2.32513 8.98403 2.43195 8.73243 2.61844 8.54594C2.80493 8.35945 3.05652 8.25263 3.32022 8.24798C3.58391 8.24332 3.83912 8.34121 4.03207 8.521L4.31979 8.80736L5.51679 7.13264C5.67356 6.91293 5.91118 6.76448 6.17739 6.71994C6.4436 6.6754 6.71661 6.73706 6.93636 6.89379ZM8.22564 9.40043C8.22564 9.13048 8.33288 8.87158 8.52377 8.68069C8.71465 8.48981 8.97355 8.38257 9.2435 8.38257H12.6364C12.9063 8.38257 13.1652 8.48981 13.3561 8.68069C13.547 8.87158 13.6542 9.13048 13.6542 9.40043C13.6542 9.67038 13.547 9.92928 13.3561 10.1202C13.1652 10.311 12.9063 10.4183 12.6364 10.4183H9.2435C8.97355 10.4183 8.71465 10.311 8.52377 10.1202C8.33288 9.92928 8.22564 9.67038 8.22564 9.40043ZM8.22564 14.7869C8.22564 14.517 8.33288 14.2581 8.52377 14.0672C8.71465 13.8763 8.97355 13.7691 9.2435 13.7691H12.6364C12.9063 13.7691 13.1652 13.8763 13.3561 14.0672C13.547 14.2581 13.6542 14.517 13.6542 14.7869C13.6542 15.0569 13.547 15.3158 13.3561 15.5067C13.1652 15.6975 12.9063 15.8048 12.6364 15.8048H9.2435C8.97355 15.8048 8.71465 15.6975 8.52377 15.5067C8.33288 15.3158 8.22564 15.0569 8.22564 14.7869ZM7.17386 13.7854C7.25529 13.6769 7.3142 13.5532 7.34715 13.4216C7.38009 13.29 7.3864 13.1531 7.36569 13.0191C7.34499 12.885 7.29769 12.7564 7.22659 12.6409C7.15548 12.5253 7.062 12.4252 6.95163 12.3463C6.84127 12.2674 6.71625 12.2114 6.58392 12.1815C6.45159 12.1516 6.31463 12.1485 6.18108 12.1723C6.04752 12.1962 5.92008 12.2464 5.80623 12.3202C5.69239 12.394 5.59444 12.4898 5.51814 12.6019L4.31979 14.278L4.03207 13.9903C3.83912 13.8105 3.58391 13.7126 3.32022 13.7173C3.05652 13.7219 2.80493 13.8287 2.61844 14.0152C2.43195 14.2017 2.32513 14.4533 2.32048 14.717C2.31582 14.9807 2.41371 15.2359 2.5935 15.4289L3.73079 16.5661C3.83527 16.6705 3.96123 16.751 4.09991 16.8018C4.2386 16.8526 4.38668 16.8727 4.53389 16.8606C4.6811 16.8484 4.8239 16.8044 4.95239 16.7315C5.08087 16.6586 5.19196 16.5587 5.27793 16.4386L7.17386 13.7854Z" fill="#A6A6A6"/>
</svg>
