<svg width="17" height="18" viewBox="0 0 17 18" fill="none" xmlns="http://www.w3.org/2000/svg">
<path fill-rule="evenodd" clip-rule="evenodd" d="M4.83333 4.41667C4.83333 3.44421 5.21964 2.51157 5.90728 1.82394C6.59491 1.13631 7.52754 0.75 8.5 0.75C9.47246 0.75 10.4051 1.13631 11.0927 1.82394C11.7804 2.51157 12.1667 3.44421 12.1667 4.41667C12.1667 5.38913 11.7804 6.32176 11.0927 7.00939C10.4051 7.69703 9.47246 8.08333 8.5 8.08333C7.52754 8.08333 6.59491 7.69703 5.90728 7.00939C5.21964 6.32176 4.83333 5.38913 4.83333 4.41667ZM4.83333 9.91667C3.61776 9.91667 2.45197 10.3996 1.59243 11.2591C0.732886 12.1186 0.25 13.2844 0.25 14.5C0.25 15.2293 0.539731 15.9288 1.05546 16.4445C1.57118 16.9603 2.27065 17.25 3 17.25H14C14.7293 17.25 15.4288 16.9603 15.9445 16.4445C16.4603 15.9288 16.75 15.2293 16.75 14.5C16.75 13.2844 16.2671 12.1186 15.4076 11.2591C14.548 10.3996 13.3822 9.91667 12.1667 9.91667H4.83333Z" fill="#A6A6A6"/>
</svg>
