<svg width="21" height="20" viewBox="0 0 21 20" fill="none" xmlns="http://www.w3.org/2000/svg">
<path d="M18.75 18.25L13.25 12.75M2.25 8.16667C2.25 9.00932 2.41597 9.84371 2.73844 10.6222C3.06091 11.4007 3.53356 12.1081 4.1294 12.7039C4.72524 13.2998 5.43261 13.7724 6.21111 14.0949C6.98962 14.4174 7.82402 14.5833 8.66667 14.5833C9.50932 14.5833 10.3437 14.4174 11.1222 14.0949C11.9007 13.7724 12.6081 13.2998 13.2039 12.7039C13.7998 12.1081 14.2724 11.4007 14.5949 10.6222C14.9174 9.84371 15.0833 9.00932 15.0833 8.16667C15.0833 7.32402 14.9174 6.48962 14.5949 5.71111C14.2724 4.93261 13.7998 4.22524 13.2039 3.6294C12.6081 3.03356 11.9007 2.56091 11.1222 2.23844C10.3437 1.91597 9.50932 1.75 8.66667 1.75C7.82402 1.75 6.98962 1.91597 6.21111 2.23844C5.43261 2.56091 4.72524 3.03356 4.1294 3.6294C3.53356 4.22524 3.06091 4.93261 2.73844 5.71111C2.41597 6.48962 2.25 7.32402 2.25 8.16667Z" stroke="#A6A6A6" stroke-width="3.5" stroke-linecap="round" stroke-linejoin="round"/>
</svg>
