<svg width="21" height="22" viewBox="0 0 21 22" fill="none" xmlns="http://www.w3.org/2000/svg">
<path d="M0 20.25H21V21.75H0V20.25ZM16.875 7.5H4.5C4.10218 7.5 3.72064 7.65804 3.43934 7.93934C3.15804 8.22064 3 8.60218 3 9V15C3.00119 15.9942 3.39666 16.9473 4.09966 17.6503C4.80267 18.3533 5.7558 18.7488 6.75 18.75H12.75C13.7442 18.7488 14.6973 18.3533 15.4003 17.6503C16.1033 16.9473 16.4988 15.9942 16.5 15V14.25H16.875C17.7701 14.25 18.6285 13.8944 19.2615 13.2615C19.8944 12.6285 20.25 11.7701 20.25 10.875C20.25 9.97989 19.8944 9.12145 19.2615 8.48851C18.6285 7.85558 17.7701 7.5 16.875 7.5ZM15 15C14.9994 15.5966 14.7622 16.1685 14.3403 16.5903C13.9185 17.0122 13.3466 17.2494 12.75 17.25H6.75C6.15345 17.2494 5.5815 17.0122 5.15967 16.5903C4.73784 16.1685 4.5006 15.5966 4.5 15V9H15V15ZM16.875 12.75H16.5V9H16.875C17.3723 9 17.8492 9.19754 18.2008 9.54917C18.5525 9.90081 18.75 10.3777 18.75 10.875C18.75 11.3723 18.5525 11.8492 18.2008 12.2008C17.8492 12.5525 17.3723 12.75 16.875 12.75ZM12.75 6H11.25V5.8905C11.2509 5.61178 11.1738 5.33836 11.0273 5.10123C10.8808 4.86409 10.6709 4.6727 10.4213 4.54875L8.4075 3.543C7.90821 3.29509 7.48831 2.91232 7.19537 2.43805C6.90243 1.96378 6.74815 1.41695 6.75 0.8595V0H8.25V0.8595C8.24914 1.1383 8.3264 1.41177 8.473 1.64892C8.61961 1.88606 8.82971 2.0774 9.0795 2.20125L11.0917 3.207C11.5912 3.4548 12.0112 3.83753 12.3043 4.31181C12.5974 4.78609 12.7518 5.33297 12.75 5.8905V6Z" fill="white"/>
</svg>
