<svg width="14" height="18" viewBox="0 0 14 18" fill="none" xmlns="http://www.w3.org/2000/svg">
<path d="M0.200791 1.34669C0.216261 1.15863 0.303628 0.983765 0.444722 0.858471C0.585817 0.733176 0.769779 0.667092 0.95835 0.67396C1.14692 0.680829 1.32559 0.760123 1.45719 0.895351C1.5888 1.03058 1.66321 1.21133 1.66496 1.40002V5.14502C1.66496 5.28315 1.71983 5.41563 1.81751 5.51331C1.91518 5.61098 2.04766 5.66585 2.18579 5.66585C2.32392 5.66585 2.4564 5.61098 2.55408 5.51331C2.65175 5.41563 2.70662 5.28315 2.70662 5.14502V1.29169C2.70662 1.12593 2.77247 0.966955 2.88968 0.849745C3.00689 0.732535 3.16586 0.666687 3.33162 0.666687C3.49738 0.666687 3.65636 0.732535 3.77357 0.849745C3.89078 0.966955 3.95662 1.12593 3.95662 1.29169V5.14502C3.95662 5.28315 4.0115 5.41563 4.10917 5.51331C4.20685 5.61098 4.33932 5.66585 4.47746 5.66585C4.61559 5.66585 4.74807 5.61098 4.84574 5.51331C4.94342 5.41563 4.99829 5.28315 4.99829 5.14502V1.40002C5.00004 1.21133 5.07445 1.03058 5.20606 0.895351C5.33766 0.760123 5.51633 0.680829 5.7049 0.67396C5.89347 0.667092 6.07743 0.733176 6.21853 0.858471C6.35962 0.983765 6.44699 1.15863 6.46246 1.34669C6.49829 1.85669 6.66496 4.30835 6.66496 5.66669C6.66496 6.79169 6.10662 7.78669 5.25496 8.38919C5.07496 8.51669 5.03162 8.65169 5.03579 8.72002C5.13829 10.285 5.41496 14.5684 5.41496 15.2475C5.41496 15.8001 5.19546 16.33 4.80476 16.7207C4.41406 17.1114 3.88416 17.3309 3.33162 17.3309C2.77909 17.3309 2.24919 17.1114 1.85849 16.7207C1.46778 16.33 1.24829 15.8001 1.24829 15.2475C1.24829 14.5675 1.52496 10.285 1.62746 8.72002C1.63162 8.65169 1.58829 8.51669 1.40829 8.38919C0.972547 8.08135 0.617059 7.67342 0.371702 7.19967C0.126345 6.72592 -0.00171211 6.2002 -0.00170898 5.66669C-0.00170898 4.30835 0.164958 1.85669 0.200791 1.34669ZM7.91496 5.45835C7.91496 4.18752 8.41979 2.96875 9.3184 2.07013C10.217 1.17152 11.4358 0.666687 12.7066 0.666687C12.8724 0.666687 13.0314 0.732535 13.1486 0.849745C13.2658 0.966955 13.3316 1.12593 13.3316 1.29169V8.37502C13.3316 8.64002 13.42 9.95419 13.5191 11.41L13.5233 11.4792C13.6316 13.0692 13.7483 14.7984 13.7483 15.2475C13.7483 15.8001 13.5288 16.33 13.1381 16.7207C12.7474 17.1114 12.2175 17.3309 11.665 17.3309C11.1124 17.3309 10.5825 17.1114 10.1918 16.7207C9.80112 16.33 9.58162 15.8001 9.58162 15.2475C9.58162 14.8192 9.68829 13.0717 9.79162 11.4692C9.84329 10.66 9.89579 9.87585 9.93496 9.29419L9.95412 9.00002H9.37329C9.18178 9.00002 8.99214 8.9623 8.81521 8.88901C8.63828 8.81572 8.47751 8.7083 8.34209 8.57289C8.20667 8.43747 8.09925 8.2767 8.02597 8.09977C7.95268 7.92283 7.91496 7.7332 7.91496 7.54169V5.45835Z" fill="white"/>
</svg>
